<?xml version="1.0" encoding="UTF-8"?>
<svg version="1.1" xmlns="http://www.w3.org/2000/svg" width="509" height="497">
<path d="M0 0 C0.72058594 0.5671875 1.44117188 1.134375 2.18359375 1.71875 C2.93511719 2.3065625 3.68664062 2.894375 4.4609375 3.5 C9.66440311 7.79074199 12.38944965 11.41999759 13.99609375 18.09375 C14.40615622 26.0216244 12.25413763 30.27737241 7.1328125 36.0546875 C2.57017452 39.94984538 -2.2715863 40.22110239 -8.0546875 40.08984375 C-12.52984869 39.48851375 -15.31963279 37.45821847 -18.81640625 34.71875 C-29.63660156 26.26706989 -40.68334131 20.12367358 -54.81640625 20.71875 C-64.53273357 21.92076987 -73.18818561 25.74642373 -79.91796875 32.9765625 C-88.04412237 43.73074878 -90.15140069 55.5595191 -88.81640625 68.71875 C-86.61004271 78.11438799 -80.89101214 85.9312391 -73.00390625 91.3984375 C-64.06021323 96.79659508 -55.67668996 98.36648558 -45.43359375 95.90625 C-21.5596645 88.21531977 -1.25924599 67.72900091 13.95703125 48.5234375 C38.98160905 17.00125002 71.61982584 -11.16976872 113.0234375 -16.08056641 C141.52847325 -18.72875124 171.71945387 -10.98552372 195.0703125 5.79296875 C198.86440352 9.25043063 200.77319855 13.10714418 201.5703125 18.1796875 C201.83724612 24.16268252 200.67483968 28.82193752 197.18359375 33.71875 C192.7492538 38.03938892 188.62336727 39.802017 182.49609375 40.15625 C176.46907284 40.01422889 172.33381807 37.64086309 167.18359375 34.71875 C147.35654273 24.15689643 126.29476004 18.62098833 104.1953125 25.265625 C78.28791499 34.08679662 57.74049797 55.13925817 41.21875 76.20703125 C37.11959014 81.26607116 32.66943167 86.00431637 28.18359375 90.71875 C27.37462646 91.57073975 27.37462646 91.57073975 26.54931641 92.43994141 C5.84099077 114.09363412 -21.25805166 135.16963017 -52.57543945 136.01123047 C-74.36957677 136.21742861 -92.01859175 127.81370915 -108.00390625 113.03125 C-116.81831159 103.75776105 -122.28959091 92.91441819 -125.81640625 80.71875 C-126.18378906 79.51412109 -126.18378906 79.51412109 -126.55859375 78.28515625 C-131.52650074 58.65171561 -126.88961413 35.87279988 -117.06640625 18.59375 C-105.54007373 0.48094176 -89.09388272 -11.68584817 -68.125 -16.65625 C-43.39801756 -20.84786947 -20.01257344 -14.849127 0 0 Z " fill="#000000" transform="translate(127.81640625,17.28125)"/>
<path d="M0 0 C4.85688413 2.62992852 7.80470586 6.16097974 9.9765625 11.15625 C11.74349041 18.51844962 10.51388908 23.8796626 6.7265625 30.28125 C5.11278228 32.26272697 3.39842164 34.11579033 1.6640625 35.9921875 C-5.92128215 44.95390518 -12.10939402 55.89593065 -11.62109375 67.93359375 C-8.81048408 86.91310399 7.79224897 101.5335071 21.58984375 113.43359375 C27.56195433 118.59777712 33.39536555 123.86692673 38.92016602 129.5078125 C40.66906238 131.22479901 42.47654136 132.81182165 44.34375 134.3984375 C50.07832657 139.38508307 55.33271117 144.84094841 60.66015625 150.25390625 C64.95643552 154.59196458 69.31454644 158.76323292 73.94433594 162.74365234 C91.88999766 178.22608762 105.75527364 199.31655576 108.7265625 223.28125 C110.0352239 247.08480119 107.3338833 268.07320482 91.12231445 286.72363281 C78.6844137 300.31820585 61.04672787 309.21875347 42.5402832 310.42358398 C30.30892333 310.90635233 19.35866958 310.15013463 7.7265625 306.28125 C6.67210937 305.930625 5.61765625 305.58 4.53125 305.21875 C-13.75658939 298.34290438 -29.47580655 283.66831016 -38.2734375 266.28125 C-46.42280501 248.19537298 -48.72668897 227.36302809 -42.04833984 208.31933594 C-38.15092097 198.06865769 -33.39135683 188.33396443 -27.0859375 179.34375 C-26.6945459 178.78284668 -26.3031543 178.22194336 -25.89990234 177.64404297 C-22.5076388 173.06767408 -18.68192052 170.08407767 -13.2734375 168.28125 C-5.59737639 167.59423592 -0.6727303 168.51438376 5.4140625 173.46875 C9.37374978 178.28458588 11.05069326 182.8211312 10.8515625 189.09375 C10.11165709 194.33673566 7.72931448 197.85459164 4.7734375 202.16015625 C-2.67377827 213.51573908 -8.66861338 225.54187138 -6.92578125 239.42578125 C-4.55971384 249.78263919 1.54168867 257.72131435 9.7265625 264.28125 C12.95060417 266.29627604 16.18360785 267.90978368 19.7265625 269.28125 C20.64566406 269.64476562 21.56476563 270.00828125 22.51171875 270.3828125 C32.5565333 273.18999032 44.56267007 272.23949132 53.7265625 267.28125 C62.04046601 262.41715383 66.44433519 255.87435111 69.5703125 246.84375 C73.08631804 232.77972784 68.87576513 219.21111421 61.9140625 206.96875 C55.5532995 197.4276055 46.47580943 189.33455972 37.81640625 181.890625 C32.17295561 177.00629949 27.02489304 171.62449756 21.79296875 166.30859375 C17.48750497 161.9612616 13.1320389 157.76825629 8.46606445 153.80810547 C6.69034576 152.2494606 5.04969384 150.61035687 3.4140625 148.90625 C0.71885121 146.15677271 -2.11953699 143.78185824 -5.1484375 141.40625 C-26.99116338 123.71544722 -47.02474451 101.23283749 -50.2734375 72.28125 C-51.83674506 53.23123079 -45.30785124 34.63819983 -34.2734375 19.28125 C-33.88607422 18.74193848 -33.49871094 18.20262695 -33.09960938 17.64697266 C-24.57082216 5.88485414 -16.18584923 -5.1171757 0 0 Z " fill="#000000" transform="translate(224.2734375,186.71875)"/>
<path d="M0 0 C1.37651703 1.16151818 2.73085517 2.3497982 4.0625 3.5625 C5.19751953 4.57763672 5.19751953 4.57763672 6.35546875 5.61328125 C20.34085459 18.80217946 27.8924324 36.41503704 28.46679688 55.51098633 C28.5896273 66.10601349 27.43359192 75.52684808 24.0625 85.5625 C23.711875 86.61566406 23.36125 87.66882813 23 88.75390625 C15.84499602 107.80907309 1.08143489 122.65237972 -17.265625 131.09375 C-38.06201324 139.57000303 -59.96641637 138.21551709 -80.50927734 129.60546875 C-91.56407623 124.69110126 -104.55425196 117.85593283 -111.875 107.9375 C-113.8310724 101.72409355 -113.83903468 95.31718931 -111.8125 89.125 C-108.48574287 84.57843192 -104.46055552 80.97537467 -98.9375 79.5625 C-89.89578451 78.43228556 -84.2439071 82.03651346 -76.89306641 86.86157227 C-76.28897949 87.25787842 -75.68489258 87.65418457 -75.0625 88.0625 C-74.15636963 88.65792603 -74.15636963 88.65792603 -73.23193359 89.26538086 C-62.10554039 96.45485781 -50.22310893 99.58410707 -36.99609375 96.984375 C-27.55460321 94.02971224 -20.60552612 88.10850608 -15.85449219 79.43798828 C-10.53154834 68.91397842 -8.60756875 59.54536747 -11.5859375 48.0625 C-14.62642655 39.13629363 -20.67844724 31.92067377 -29.0625 27.5625 C-30.67448774 26.86495791 -32.29863591 26.19431797 -33.9375 25.5625 C-35.54625 24.9128125 -35.54625 24.9128125 -37.1875 24.25 C-49.9377146 21.91246066 -61.0168649 23.91567598 -72.1875 30.375 C-76.63069346 33.44452025 -80.56657977 36.81793943 -84.484375 40.51171875 C-85.15549316 41.14291626 -85.82661133 41.77411377 -86.51806641 42.42443848 C-98.91992221 54.19783098 -110.87919165 66.43985241 -122.9375 78.5625 C-127.43146971 83.08025696 -131.92718664 87.59624926 -136.42712402 92.10806274 C-138.20384116 93.89117502 -139.97748193 95.67730653 -141.75097656 97.46362305 C-146.81013751 102.54543493 -151.8925153 107.53636645 -157.35229492 112.1932373 C-159.33263217 113.90380583 -161.14616516 115.73433284 -162.9375 117.640625 C-163.5975 118.32640625 -164.2575 119.0121875 -164.9375 119.71875 C-166.27865836 121.12277516 -167.61194116 122.5343628 -168.9375 123.953125 C-174.24128714 129.42265549 -178.65269702 131.92771437 -186.3125 133.0625 C-191.91622686 132.28957216 -197.4492674 130.16797916 -201.4296875 126 C-204.07848235 122.1331462 -205.11222963 118.49393298 -205.25 113.875 C-205.28738281 113.06675781 -205.32476562 112.25851563 -205.36328125 111.42578125 C-204.04053817 102.53063745 -197.90725416 97.00412323 -191.6875 91 C-190.86636719 90.18853516 -190.04523438 89.37707031 -189.19921875 88.54101562 C-185.71592426 85.12120431 -182.20649373 81.78897333 -178.48925781 78.62524414 C-172.79955788 73.66858192 -167.53947913 68.27523541 -162.22442627 62.92459106 C-160.27493245 60.9621836 -158.32220075 59.00304846 -156.36865234 57.04467773 C-152.22210091 52.88677025 -148.07950367 48.72493723 -143.9375 44.5625 C-139.13283921 39.73413659 -134.32651607 34.90745224 -129.51593018 30.08499146 C-127.60407521 28.16671486 -125.69528794 26.24542257 -123.78662109 24.32397461 C-118.51381245 19.0291496 -113.26825056 13.76772789 -107.55029297 8.9465332 C-105.77748118 7.42517837 -104.11263265 5.81520005 -102.4375 4.1875 C-73.9557146 -20.60840729 -30.15442973 -22.43322627 0 0 Z " fill="#000000" transform="translate(480.9375,16.4375)"/>
<path d="M0 0 C4.05637004 3.5569714 7.80472912 7.382756 11.5625 11.25 C12.57398894 12.2730071 13.58635369 13.29514903 14.59960938 14.31640625 C18.62953462 18.39649654 22.62342004 22.48765954 26.33984375 26.859375 C31.83643597 33.26313977 38.0045435 39.06947624 44 45 C57.84809055 58.69811123 57.84809055 58.69811123 61.46875 62.96875 C67.04422556 69.53635278 73.38148332 75.44529701 79.5 81.5 C94.57647032 96.41922876 94.57647032 96.41922876 99.70117188 102.47363281 C101.37877162 104.44512785 103.1974859 106.2680997 105 108.125 C119.35646905 124.32132722 121.0729244 146.32037559 120 167 C118.12937702 182.91614807 111.41312945 197.55211278 103 211 C102.41089844 211.97453125 101.82179688 212.9490625 101.21484375 213.953125 C97.69961886 219.43014965 94.49232879 223.39108082 88 225 C80.84131981 225.97101867 75.77779351 225.39112307 70 221 C65.63528579 216.64665223 63.85271591 212.97766218 63.6875 206.8125 C63.75388472 201.19192701 65.04228771 197.69593705 68 193 C77.83917023 176.93384807 83.1877052 162.85091855 80.5703125 143.88671875 C79.26412973 138.70230197 76.97712116 135.15448019 73.26806641 131.34399414 C71.16359909 129.16907588 69.1166654 126.94969564 67.07902527 124.71232605 C60.01197872 116.96671389 52.64358933 109.55651697 45.1875 102.1875 C32.20549596 89.35481656 32.20549596 89.35481656 28.55078125 85.05078125 C23.11321589 78.65922758 16.96116584 72.89660448 11 67 C-3.1024494 53.05028471 -3.1024494 53.05028471 -8.35351562 46.86035156 C-12.51269321 42.16092493 -17.16175973 37.88602238 -21.6796875 33.53515625 C-27.39028094 27.92960717 -31.41129883 23.48508494 -31.5 15.125 C-31.33929953 9.237519 -30.00272974 5.33716146 -26 1 C-17.75015703 -5.56620155 -8.79089119 -5.90099735 0 0 Z " fill="#000000" transform="translate(211,97)"/>
</svg>
